<svg xmlns="http://www.w3.org/2000/svg" viewBox="0 0 171.67 298.08"><defs><style>.cls-1{fill:#b48844;}</style></defs><g id="&#x421;&#x43B;&#x43E;&#x439;_2" data-name="&#x421;&#x43B;&#x43E;&#x439; 2"><g id="&#x421;&#x43B;&#x43E;&#x439;_1-2" data-name="&#x421;&#x43B;&#x43E;&#x439; 1"><path class="cls-1" d="M147.46,271.58l8.24-2.28-2.79,20.54h4.44V267.78h-9.89Zm-24.6,5.2c.25-4.06,3.17-6.72,6.59-6.72,4.82,0,6.72,3.8,6.85,6.72Zm7.48-9.25c-5.83,0-9.51,4.43-9.51,11.15,0,7.1,4.44,11.54,10.52,11.54a12.91,12.91,0,0,0,8.12-2.54l-1.14-3a12.31,12.31,0,0,1-7.36,2.54c-5.07,0-8.24-3.3-8.24-9.13l17,1.9c.51-2.79-.12-12.42-9.38-12.42M27.64,191.7a35.51,35.51,0,0,0,9.13-20.16L32,170.28c-.38,8.87-1.9,14.45-5.83,20.54Zm80,29.29h23.84l1.27,16.74c.38,4.69-.38,7-3.42,7-3.3,0-6.34-2.66-9.51-6l-2.67,5.07a25.6,25.6,0,0,0,10.91,2.67c4.82,0,6.84-2.67,7.22-8.5l1-17h23.84v-1.52l-52.5-2.53Zm26.25-46.66,1.27-9.38H131.1l1.27,9.38H95.6v1.53l76.07,3.29v-4.82ZM96.87,221h5.58l-3-11.66,70.37-2.28L165.71,221h5.58V205.4H96.87Zm9,67.71c-2,0-3.17-1.4-3.17-5.83V270.31l9.38,1.27v-3.8H102.7V263H99.53v4.82H93.19v1.52l6.34.76v12.68c0,5.07,2.79,7.48,6.85,7.48a10.82,10.82,0,0,0,7.35-2.54l-2.28-3.17c-1.52,2.16-3.55,4.19-5.58,4.19m49.19-93.95-43.23,2.15c.38-2.66-.76-8-2.28-9.89l47.67-2.28c-1.9,2.66-2.54,8.5-2.16,10m-46.78,3.67h50.21V183.21H108.28Zm47.54,59.47a2.33,2.33,0,0,0-2.4,2.41,2.41,2.41,0,0,0,2.4,2.41,2.41,2.41,0,0,0,0-4.82M17.88,216.43c-.26,11.54-.89,20-1.4,29.41h5.33c-.64-9.38-1.27-17.87-1.27-29.41l-.25-14.08c2.4,7.49,12.93,18.26,12.93,18.26l3.55-4.05s-14.58-8.63-16.23-17.63a142,142,0,0,1,15.34,1.14v-3.8a130.5,130.5,0,0,1-15.34,1.14L21.81,165H16.48l1.4,32.46a114.87,114.87,0,0,1-16.49-1.14v3.8a108.63,108.63,0,0,1,16.49-1.14C14.45,217.44,0,229.87,0,229.87l4.06,3.67a80,80,0,0,0,14.2-29.66ZM41.21,195l-1.27,1.78c9,5.83,13.06,16.35,13.06,16.35l4.18-4.06a45.36,45.36,0,0,0-16-14.07M18.38,269.3h1.53c4.05,0,7,1.77,7,5.2,0,2.15-1.27,3.8-4.44,3.8H18.38Zm4.82,10.52c5.07,0,7.1-2.66,7.1-5.58,0-3.67-3-6.46-8.37-6.46H15.21v22.06h3.17v-10l8.24,10h5.71l-12.17-10ZM79,287.94c-5.33,0-10.14-5.2-10.14-11.92,0-4.69,2.53-6.59,5.57-6.72,5.33-.13,10.15,5.2,10.15,11.92,0,4.69-2.54,6.72-5.58,6.72M76.2,267c-6.21,0-9.76,4.94-9.76,11.41s4.31,11.79,10.77,11.79c6.22,0,9.77-5.07,9.77-11.41S82.67,267,76.2,267m-9.64-21.18h2.16l.13-26.12A89.48,89.48,0,0,1,81,217.82l-.89-4.18A75.3,75.3,0,0,1,69,218l1.27-53H65l1.4,53.76c-7,2-21,5.33-34.24,7.86l1.27,5c11.54-3.81,22.7-8.24,33-11ZM1.77,172.69c4.57,6.21,6.72,11.28,8.5,19l1.77-.5c-.38-8.75-2.66-16.23-5.45-20.92ZM49.32,287.81l-5.2-20H39.43l9,21.81-5.07,6.59,3.43,1.9,12.93-30.3H55.28ZM43.87,172.94l-1.27,1.52c8,5.33,10.65,10.9,12.93,17.24l4.06-4.18a38.19,38.19,0,0,0-15.72-14.58M46.79,56.11c.46,0,.91,0,1.37.06a18.19,18.19,0,0,1,13.28,7.4l-.78.33a17.23,17.23,0,0,0-18.6-6.3l-.37-.75a18.71,18.71,0,0,1,3.73-.68c.45,0,.91-.06,1.37-.06m11.59.06a21.78,21.78,0,0,1,6.42,6.37c-.29.06-.58.14-.86.21a20.69,20.69,0,0,0-7.17-6.58Zm6.81,0h1.47A7.27,7.27,0,0,0,64.48,58l-.58-.6a9,9,0,0,1,1.29-1.25m5,1.63a4.69,4.69,0,0,1,4,2.24c-.18.24-.35.5-.53.75a3.92,3.92,0,0,0-7,0c-.18-.26-.35-.51-.53-.75a4.69,4.69,0,0,1,4-2.24m5-1.63a9,9,0,0,1,1.29,1.25l-.58.6a7.27,7.27,0,0,0-2.18-1.85Zm6.81,0h1.61a20.72,20.72,0,0,0-7.18,6.58c-.28-.07-.56-.15-.85-.21A21.78,21.78,0,0,1,82,56.17m10.22,0c.46,0,.91-.06,1.37-.06s.92,0,1.37.06a18.23,18.23,0,0,1,13.29,7.4l-.79.33a17.29,17.29,0,0,0-27.74,0l-.78-.33a18.19,18.19,0,0,1,13.28-7.4m13,0a21.74,21.74,0,0,1,6.41,6.37l-.85.21a20.78,20.78,0,0,0-7.17-6.58Zm6.8,0h1.47A7.27,7.27,0,0,0,111.25,58l-.57-.6A8.41,8.41,0,0,1,112,56.17m5,1.63A4.72,4.72,0,0,1,121,60l-.53.75a3.93,3.93,0,0,0-7,0c-.17-.26-.35-.51-.53-.75a4.72,4.72,0,0,1,4-2.24m5-1.63a8,8,0,0,1,1.29,1.25c-.19.2-.39.4-.57.6a7.3,7.3,0,0,0-2.19-1.85Zm6.81,0h1.57v0a20.82,20.82,0,0,0-7.12,6.55c-.28-.07-.57-.15-.86-.21a21.9,21.9,0,0,1,6.42-6.37m-2.15,7.57s-.09.1-.13.16l-.78-.33a18.43,18.43,0,0,1,2.23-2.51ZM115.67,62a1.41,1.41,0,0,1,2.56,0c-.43,0-.86,0-1.28,0s-.85,0-1.28,0m9.35,5a20.63,20.63,0,0,0-25.23,7.51l-.85-.21a21.7,21.7,0,0,1,7.23-6.87,21.44,21.44,0,0,1,19.22-1.18Zm-1.49,3A17.1,17.1,0,0,0,117,68.63a17.4,17.4,0,0,0-13.87,7l-.79-.32a18.08,18.08,0,0,1,21.61-6.06Zm-1.48,3a13.9,13.9,0,0,0-16,4.2l-.72-.42a14.7,14.7,0,0,1,17-4.52Zm-1.48,3a10.58,10.58,0,0,0-3.62-.65,10.76,10.76,0,0,0-8.14,3.79c-.2-.17-.41-.34-.63-.5A11.38,11.38,0,0,1,117,74.5a11.65,11.65,0,0,1,4,.72ZM119,79a7.58,7.58,0,0,0-2.08-.3,7.21,7.21,0,0,0-5.7,2.75l-.57-.6a8.16,8.16,0,0,1,6.27-3,8,8,0,0,1,2.48.4c-.13.25-.27.49-.4.73M117.11,82,117,82a4,4,0,0,0-3.51,2.16c-.17-.25-.35-.5-.53-.74a4.72,4.72,0,0,1,4-2.24,5.34,5.34,0,0,1,.69,0l-.53.79m-6.39,4.11a20.65,20.65,0,0,0-34.32,0c-.28-.08-.56-.15-.85-.21a21.72,21.72,0,0,1,7.23-6.88,21.47,21.47,0,0,1,28.79,6.88c-.28.06-.57.13-.85.21M109.65,90a20.8,20.8,0,0,0-7.05,4.48q-1,.48-2,.9a21.64,21.64,0,0,1,5.55-4.63,21.14,21.14,0,0,1,5.15-2.16c-.54.49-1.1,1-1.67,1.41M99.26,93.1a7.3,7.3,0,0,0-11.4,0l-.57-.6a8.1,8.1,0,0,1,12.54,0l-.57.6m-2.19,2.77a3.93,3.93,0,0,0-7,0l-.53-.75a4.76,4.76,0,0,1,8.08,0l-.53.75M93.56,97c-.42,0-.85,0-1.28,0a1.41,1.41,0,0,1,2.56,0c-.43,0-.86,0-1.28,0m0-16.69a17.41,17.41,0,0,0-13.87,7L78.91,87a18.12,18.12,0,0,1,29.31,0l-.79.32a17.4,17.4,0,0,0-13.87-7m8.77,10c-.21.17-.43.33-.63.5a10.63,10.63,0,0,0-16.27,0c-.21-.17-.42-.34-.64-.5a11.45,11.45,0,0,1,17.54,0m-8.77-6.62a14.12,14.12,0,0,0-10.85,5.18L82,88.43a14.77,14.77,0,0,1,23.14,0l-.71.42a14.16,14.16,0,0,0-10.86-5.18M87.33,97.83a20.6,20.6,0,0,0-25-7.59l-.74-.6A21.45,21.45,0,0,1,81,90.75a21.79,21.79,0,0,1,7.23,6.87l-.86.21m-3.82.47A17.41,17.41,0,0,0,70.17,92a17.21,17.21,0,0,0-4.47.61l-.92-.6A18.07,18.07,0,0,1,84.6,98.35l-1.09,0m-6.05-.86a14.07,14.07,0,0,0-6.37-2c-.62-.26-1.24-.53-1.85-.83q.47,0,.93,0a14.92,14.92,0,0,1,9.29,3.29c-.67-.11-1.34-.24-2-.39M51.93,77.63l-.27-.53-.22-.44A21.45,21.45,0,0,1,64.8,85.93c-.29.06-.57.13-.86.21a20.6,20.6,0,0,0-12-8.51m8.73,9.65a17.46,17.46,0,0,0-5.92-5c-.31-.44-.61-.89-.9-1.34a18.21,18.21,0,0,1,7.6,6l-.78.32M46.79,67h-.12l-.4-.81.52,0a8.21,8.21,0,0,1,6.27,3c-.2.2-.39.4-.57.61A7.23,7.23,0,0,0,46.79,67m3.51,5.51a4,4,0,0,0-1.77-1.73L48,69.64a4.74,4.74,0,0,1,2.84,2.09l-.53.75M44.72,63a11.89,11.89,0,0,1,2.07-.19,11.42,11.42,0,0,1,8.77,4.09l-.64.51a10.74,10.74,0,0,0-8.13-3.79,9.67,9.67,0,0,0-1.7.14Zm25.45,5.63a17.41,17.41,0,0,0-13.87,7l-.78-.32a18.12,18.12,0,0,1,29.31,0l-.78.32a17.43,17.43,0,0,0-13.88-7m0,3.35a14.1,14.1,0,0,0-10.85,5.18l-.72-.42a14.77,14.77,0,0,1,23.14,0l-.71.42A14.11,14.11,0,0,0,70.17,72m0,3.33A10.75,10.75,0,0,0,62,79.1l-.63-.5a11.42,11.42,0,0,1,17.53,0l-.63.5a10.76,10.76,0,0,0-8.14-3.79m0,3.35a7.21,7.21,0,0,0-5.69,2.75l-.58-.6a8.1,8.1,0,0,1,12.55,0l-.58.6a7.21,7.21,0,0,0-5.7-2.75m1.29,6.69-1.29,0-1.28,0a1.42,1.42,0,0,1,2.57,0M70.17,82a4,4,0,0,0-3.5,2.16c-.18-.25-.35-.5-.53-.74a4.75,4.75,0,0,1,8.07,0c-.18.24-.35.49-.53.74A4,4,0,0,0,70.17,82M93.56,60.29a14.09,14.09,0,0,0-10.85,5.18c-.23-.15-.48-.29-.72-.43a14.79,14.79,0,0,1,23.14,0c-.24.14-.48.28-.71.43a14.12,14.12,0,0,0-10.86-5.18m0,3.33a10.74,10.74,0,0,0-8.13,3.79l-.64-.51a11.45,11.45,0,0,1,17.54,0l-.63.51a10.76,10.76,0,0,0-8.14-3.79m0,3.35a7.23,7.23,0,0,0-5.7,2.75l-.57-.61a8.1,8.1,0,0,1,12.54,0l-.57.61A7.21,7.21,0,0,0,93.56,67m1.28,6.69c-.43,0-.86,0-1.28,0s-.85,0-1.28,0a1.42,1.42,0,0,1,2.56,0m-1.28-3.34a4,4,0,0,0-3.51,2.16l-.53-.75a4.76,4.76,0,0,1,8.08,0l-.53.75a4,4,0,0,0-3.51-2.16M68.89,62a1.42,1.42,0,0,1,2.57,0c-.44,0-.87,0-1.29,0s-.84,0-1.28,0m1.28,2.48A21.5,21.5,0,0,1,81,67.36a21.89,21.89,0,0,1,7.23,6.87l-.86.21a20.64,20.64,0,0,0-34.31,0l-.86-.21a21.79,21.79,0,0,1,7.23-6.87,21.49,21.49,0,0,1,10.78-2.91m-27-4.54A14.74,14.74,0,0,1,58.36,65l-.72.43a14.09,14.09,0,0,0-10.85-5.18,13.9,13.9,0,0,0-3.22.38Zm8,17.43a38.64,38.64,0,0,0,69.33,0l10.68-21.71H40.49ZM30.48,141H141.2c18,0,22.85-6.32,29.65-16l.12-.16s-170.15.16-170.26,0l.11.16c6.81,9.66,11.63,16,29.66,16m19.38-22.39h72a36.3,36.3,0,0,0,33.61-22.59l.1-.23c-13.18,5.1-35.94,7.57-69.68,7.57s-56.51-2.47-69.68-7.57l.09.23a36.3,36.3,0,0,0,33.61,22.59M77.57,49H94.15c14,0,26.05-6.81,28.87-16.29H48.65l.38,1C52.41,42.68,64.14,49,77.57,49M30.34,1.56a.9.9,0,0,1,.57-.36.88.88,0,0,1,1,.72.82.82,0,0,1-.15.64.81.81,0,0,1-.56.35h-.14a.86.86,0,0,1-.86-.72.89.89,0,0,1,.15-.64m2.09,3.88A.83.83,0,0,1,33,5.12h.1a.87.87,0,0,1,.86.76.82.82,0,0,1-.18.64.81.81,0,0,1-.57.32h-.11a.87.87,0,0,1-.68-1.4M33.5,1.09a.87.87,0,0,1,.6-.28h0a.86.86,0,0,1,.86.82.87.87,0,0,1-.82.91h0a.86.86,0,0,1-.85-.82.86.86,0,0,1,.21-.63M35.93,4.9a.87.87,0,1,1,0,1.73.87.87,0,0,1,0-1.73M37.71.8h.23v0a.85.85,0,0,1,.63.88.86.86,0,0,1-.86.82h-.06a.86.86,0,0,1-.8-.92A.86.86,0,0,1,37.71.8m1.77,4.32h0a.87.87,0,0,1,.54.32.87.87,0,0,1-.68,1.4h-.11a.86.86,0,1,1,.21-1.71M41.17,9.6a.86.86,0,0,1,.66,1,.87.87,0,0,1-.84.69l-.18,0a.84.84,0,0,1-.55-.38.82.82,0,0,1-.12-.65.87.87,0,0,1,1-.66m.22-8.4a.9.9,0,0,1,.57.36.84.84,0,0,1,.14.64.84.84,0,0,1-.85.72h-.14a.81.81,0,0,1-.56-.35.82.82,0,0,1-.15-.64.87.87,0,0,1,1-.72M43,5.76a.86.86,0,0,1,.63,1,.85.85,0,0,1-.83.66.78.78,0,0,1-.22,0A.87.87,0,0,1,42,7.05a.85.85,0,0,1-.09-.66.87.87,0,0,1,1-.63M43.9,2.6A.89.89,0,0,1,45,2a.87.87,0,0,1-.24,1.7.8.8,0,0,1-.23,0A.9.9,0,0,1,44,3.26a.84.84,0,0,1-.07-.66m2.47,4.23a.88.88,0,0,1,.47.46.84.84,0,0,1,0,.66.86.86,0,0,1-.81.56.81.81,0,0,1-.31-.06A.87.87,0,0,1,45.26,8a.84.84,0,0,1,0-.66.89.89,0,0,1,1.12-.5m.93-3.16a.88.88,0,0,1,1.13-.48.87.87,0,1,1-1.13.48m2.3,4.65a.86.86,0,0,1,.42.51.9.9,0,0,1-.07.66.86.86,0,0,1-1.52-.82.88.88,0,0,1,1.17-.35m1.1,5.59a.89.89,0,0,1,.35.57.94.94,0,0,1-.16.65.89.89,0,0,1-1.22.17.91.91,0,0,1-.34-.57.87.87,0,0,1,.17-.64.88.88,0,0,1,1.2-.18M50.56,5.1a.88.88,0,0,1,.76-.45.81.81,0,0,1,.41.11.86.86,0,0,1-.41,1.62.83.83,0,0,1-.41-.1.87.87,0,0,1-.35-1.18M52,1.5A1.42,1.42,0,0,1,52,1.34a1.09,1.09,0,0,1,.08-.15.69.69,0,0,1,.11-.13A.69.69,0,0,1,52.35,1L52.5.87l.16-.05a1,1,0,0,1,.34,0l.16.05.15.08a.69.69,0,0,1,.13.11.69.69,0,0,1,.11.13,1.09,1.09,0,0,1,.08.15,1.42,1.42,0,0,1,0,.16,1,1,0,0,1,0,.17.83.83,0,0,1-.26.61.69.69,0,0,1-.13.11.71.71,0,0,1-.15.08l-.16,0-.17,0-.17,0a.71.71,0,0,1-.16,0l-.15-.08-.13-.11A.86.86,0,0,1,52,1.67a1,1,0,0,1,0-.17m2.87,5.18a.87.87,0,0,1-.5,1.58.84.84,0,0,1-.49-.16.9.9,0,0,1-.36-.55.88.88,0,0,1,.14-.65.9.9,0,0,1,1.21-.22M55.68,13a.87.87,0,0,1-.87.91.89.89,0,0,1-.58-.22.87.87,0,0,1-.06-1.22.9.9,0,0,1,1.21-.08.85.85,0,0,1,.3.61M55.62,2.67a1,1,0,0,1,.05-.16,1.09,1.09,0,0,1,.08-.15l.11-.13A.63.63,0,0,1,56,2.12L56.14,2,56.3,2a.9.9,0,0,1,.78.24l.11.13a1.09,1.09,0,0,1,.08.15.91.91,0,0,1,.07.33.87.87,0,0,1-.26.61.83.83,0,0,1-.61.26.89.89,0,0,1-.87-.87,1,1,0,0,1,0-.17M58,9.53a.87.87,0,0,1-.21.62.89.89,0,0,1-.66.3.91.91,0,0,1-.57-.21A.88.88,0,0,1,56.51,9a.9.9,0,0,1,1.22-.08.85.85,0,0,1,.3.6m-.24,6.64a.84.84,0,0,1-.57.21.85.85,0,0,1-.65-.3.86.86,0,0,1-.21-.63.85.85,0,0,1,.3-.59.89.89,0,0,1,1.22.09.91.91,0,0,1,.21.63.89.89,0,0,1-.3.59m.7,5a.85.85,0,0,1,.52-.41A.87.87,0,0,1,60,22a.89.89,0,0,1-.51.41.85.85,0,0,1-1.08-.59.84.84,0,0,1,.07-.66m0-3.08a1,1,0,0,1,.05-.16,1.09,1.09,0,0,1,.08-.15.5.5,0,0,1,.11-.13.69.69,0,0,1,.13-.11l.15-.08.16,0a1,1,0,0,1,.34,0l.16,0,.15.08a.63.63,0,0,1,.13.11.69.69,0,0,1,.11.13,1.09,1.09,0,0,1,.08.15,1,1,0,0,1,.05.16.73.73,0,0,1,0,.34,1,1,0,0,1-.05.16.71.71,0,0,1-.08.15.69.69,0,0,1-.11.13.63.63,0,0,1-.13.11l-.15.08a.58.58,0,0,1-.16.05l-.17,0-.17,0L59,19.07,58.84,19a.69.69,0,0,1-.13-.11.58.58,0,0,1-.1-.12.65.65,0,0,1-.09-.16.75.75,0,0,1-.05-.16,1,1,0,0,1,0-.17,1.11,1.11,0,0,1,0-.17m.66-6.66a.88.88,0,0,1,1.22.05.84.84,0,0,1,.23.62.87.87,0,0,1-.28.6.86.86,0,0,1-.59.23.88.88,0,0,1-.64-.28.87.87,0,0,1,.06-1.22M59.26,4a.94.94,0,0,1,1.23,0,.64.64,0,0,1,.1.13,1.09,1.09,0,0,1,.08.15,1,1,0,0,1,0,.16.9.9,0,0,1,0,.18.7.7,0,0,1,0,.16,1.09,1.09,0,0,1,0,.17.64.64,0,0,1-.08.14l-.1.14a.89.89,0,0,1-.62.25l-.16,0-.17,0-.15-.08a.91.91,0,0,1-.13-.1,1.71,1.71,0,0,1-.11-.14A1,1,0,0,1,59.07,5l0-.17a.76.76,0,0,1,0-.16A.89.89,0,0,1,59.26,4m2.2,10.13a.88.88,0,0,1,1.21.18.87.87,0,0,1-.18,1.21.89.89,0,0,1-.51.17.86.86,0,0,1-.7-.35.83.83,0,0,1-.16-.64.85.85,0,0,1,.34-.57M61.3,1.83a.84.84,0,0,1,.44-.5.88.88,0,0,1,1.16.39.84.84,0,0,1,0,.66.82.82,0,0,1-.43.5.92.92,0,0,1-.39.09.84.84,0,0,1-.77-.48.84.84,0,0,1-.05-.66M63.56,7a.53.53,0,0,1,.08.15,1.42,1.42,0,0,1,0,.16.73.73,0,0,1,0,.34,1.42,1.42,0,0,1,0,.16,1.09,1.09,0,0,1-.08.15.63.63,0,0,1-.11.13.69.69,0,0,1-.13.11l-.15.08-.16,0h-.34l-.16,0-.15-.08a.69.69,0,0,1-.13-.11A.63.63,0,0,1,62.12,8,1.09,1.09,0,0,1,62,7.84a1.42,1.42,0,0,1,0-.16.73.73,0,0,1,0-.34,1.42,1.42,0,0,1,0-.16A.71.71,0,0,1,62.12,7a1,1,0,0,1,.24-.24l.15-.08.16,0a.88.88,0,0,1,.78.24.69.69,0,0,1,.11.13m.54,10a.58.58,0,0,1,.16.05l.15.08.13.1.11.13a1.09,1.09,0,0,1,.08.15,1.54,1.54,0,0,1,0,.17.88.88,0,0,1,0,.17,1.11,1.11,0,0,1,0,.17l0,.16a1.09,1.09,0,0,1-.08.15l-.11.13-.13.11-.15.08-.16.05h-.34l-.16-.05-.15-.08-.13-.11-.11-.13a1.09,1.09,0,0,1-.08-.15L63.08,18a1.11,1.11,0,0,1,0-.17,1,1,0,0,1,0-.17,1.54,1.54,0,0,1,.05-.17,1.09,1.09,0,0,1,.08-.15l.11-.13.13-.1L63.6,17a.58.58,0,0,1,.16-.05.65.65,0,0,1,.34,0m.47-6.38a.85.85,0,0,1,.13-.32l.11-.13.13-.11.15-.08.16,0a.88.88,0,0,1,.78.23.85.85,0,0,1,.11.14.64.64,0,0,1,.08.14l0,.17a.86.86,0,0,1,0,.16.91.91,0,0,1,0,.17c0,.06,0,.11,0,.16a1.09,1.09,0,0,1-.08.15l-.11.14-.13.11-.15.08-.16,0a.52.52,0,0,1-.17,0,.47.47,0,0,1-.17,0,.43.43,0,0,1-.16,0,.36.36,0,0,1-.15-.08.49.49,0,0,1-.13-.1.9.9,0,0,1-.26-.62.7.7,0,0,1,0-.16m.72-5.3a.84.84,0,0,1,.51-.39l.24,0a.86.86,0,0,1,.74,1.3.83.83,0,0,1-.53.4l-.21,0A.87.87,0,0,1,65.2,6a.89.89,0,0,1,.09-.66M65.41,1A.87.87,0,0,1,66,.65h.13a.87.87,0,0,1,.86.74A.83.83,0,0,1,66.8,2a.85.85,0,0,1-.56.34H66.1a.87.87,0,0,1-.85-.73A.84.84,0,0,1,65.41,1m2.46,11.3a.87.87,0,0,1,0,1.73.87.87,0,1,1,0-1.73m0-4.19A.86.86,0,1,1,67,9a.86.86,0,0,1,.86-.86M69.76.65a.87.87,0,0,1-.13,1.72H69.5A.86.86,0,1,1,69.76.65M70.53,6a.87.87,0,0,1-.84.65l-.21,0A.91.91,0,0,1,69,6.19a.87.87,0,0,1,.74-1.31l.22,0a.89.89,0,0,1,.53.4.85.85,0,0,1,.09.66m.27,4.09a.45.45,0,0,1,.13.1l.11.13a.8.8,0,0,1,.08.16.75.75,0,0,1,0,.16.69.69,0,0,1,0,.33.84.84,0,0,1,0,.17,1.09,1.09,0,0,1-.08.15l-.11.13-.13.11-.15.07a.43.43,0,0,1-.16,0,.73.73,0,0,1-.34,0l-.16,0-.15-.08-.13-.11-.11-.13a1.09,1.09,0,0,1-.08-.15,1,1,0,0,1,0-.16,1.09,1.09,0,0,1,0-.18.88.88,0,0,1,.25-.61.91.91,0,0,1,.13-.1A.5.5,0,0,1,70,10a.64.64,0,0,1,.17-.05.78.78,0,0,1,.34,0l.16.05a1.19,1.19,0,0,1,.15.09m.61,7.06a1.19,1.19,0,0,1,.15-.09l.16,0a.86.86,0,0,1,.78.23l.11.13.08.15,0,.17c0,.05,0,.11,0,.16s0,.12,0,.17,0,.12,0,.17a1.09,1.09,0,0,1-.08.15l-.11.13a.91.91,0,0,1-.13.1.55.55,0,0,1-.15.08.45.45,0,0,1-.17.05l-.16,0-.17,0a.37.37,0,0,1-.16-.05.51.51,0,0,1-.15-.07.69.69,0,0,1-.13-.11l-.11-.13a1.09,1.09,0,0,1-.08-.15A1,1,0,0,1,71,18a1.24,1.24,0,0,1,0-.18.88.88,0,0,1,0-.16,1.09,1.09,0,0,1,0-.17.64.64,0,0,1,.08-.14.76.76,0,0,1,.11-.14.41.41,0,0,1,.13-.1m.64-9.77a.75.75,0,0,1,0-.16A1.09,1.09,0,0,1,72.18,7a.73.73,0,0,1,.1-.13l.12-.1.16-.09.17,0a.86.86,0,0,1,1,.85,1,1,0,0,1,0,.17,1,1,0,0,1,0,.16,1,1,0,0,1-.08.15,1,1,0,0,1-.24.24l-.15.08-.16,0h-.34l-.16,0a.71.71,0,0,1-.15-.08.69.69,0,0,1-.13-.11A.63.63,0,0,1,72.18,8a1.09,1.09,0,0,1-.08-.15.78.78,0,0,1,0-.5m.16-5.16a.88.88,0,0,1,1.16-.38.87.87,0,0,1,.44.5.89.89,0,0,1,0,.66.87.87,0,0,1-.78.48,1,1,0,0,1-.38-.09.85.85,0,0,1-.43-.5.87.87,0,0,1,0-.67m2.48,12.53a.91.91,0,0,1-.16.64.87.87,0,0,1-1.4-1,.89.89,0,0,1,1.21-.19.89.89,0,0,1,.35.57M75,4.44a.62.62,0,0,1,0-.16,1.09,1.09,0,0,1,.08-.15L75.25,4a.93.93,0,0,1,1.23,0l.11.13.07.15a.49.49,0,0,1,0,.16.79.79,0,0,1,0,.17.9.9,0,0,1-.25.62.61.61,0,0,1-.14.1.53.53,0,0,1-.15.08l-.16,0-.17,0a.88.88,0,0,1-.61-.25A.9.9,0,0,1,75,4.61a.52.52,0,0,1,0-.17m1.71,8.23a.86.86,0,0,1-.64.28.85.85,0,0,1-.58-.23.83.83,0,0,1-.28-.59.85.85,0,0,1,.23-.63.89.89,0,0,1,1.22-.05.86.86,0,0,1,0,1.22m.38,5a.57.57,0,0,1,.1.13.71.71,0,0,1,.08.15.58.58,0,0,1,0,.16,1,1,0,0,1,0,.17.5.5,0,0,1,0,.17.58.58,0,0,1,0,.16,1.09,1.09,0,0,1-.08.15.64.64,0,0,1-.1.13.9.9,0,0,1-.62.26l-.17,0-.16-.05L76,19l-.13-.11a.64.64,0,0,1-.1-.13.71.71,0,0,1-.08-.15.58.58,0,0,1,0-.16.5.5,0,0,1,0-.17.88.88,0,0,1,0-.17.37.37,0,0,1,0-.16.55.55,0,0,1,.08-.15.57.57,0,0,1,.1-.13l.13-.11.15-.08.17,0a.91.91,0,0,1,.33,0l.17,0,.14.08.14.11M77.49,24a.87.87,0,0,1-.83.63.64.64,0,0,1-.24,0,.88.88,0,0,1-.52-.41.84.84,0,0,1-.07-.66.87.87,0,0,1,1.59-.18.84.84,0,0,1,.07.66m.44-9a.87.87,0,1,1,1.31,1.13.87.87,0,0,1-.66.3.83.83,0,0,1-.56-.21.85.85,0,0,1-.3-.59.86.86,0,0,1,.21-.63m.14-6A.9.9,0,0,1,79.29,9a.87.87,0,0,1-.08,1.23.86.86,0,0,1-.57.21.88.88,0,0,1-.65-.29.86.86,0,0,1-.21-.63.88.88,0,0,1,.29-.6m.29-7a1,1,0,0,1,0-.16,1.09,1.09,0,0,1,.08-.15.69.69,0,0,1,.11-.13.92.92,0,0,1,1.22,0l.1.12a.65.65,0,0,1,.09.16c0,.05,0,.11,0,.16a1,1,0,0,1,0,.17.86.86,0,0,1-.25.61.87.87,0,0,1-1.48-.61.79.79,0,0,1,0-.17M80.2,18.76a.63.63,0,0,1,.13-.11.5.5,0,0,1,.14-.08l.17-.05a.87.87,0,0,1,.78.24.69.69,0,0,1,.11.13.71.71,0,0,1,.08.15,1.42,1.42,0,0,1,0,.16.91.91,0,0,1,0,.17,1,1,0,0,1,0,.17l0,.16a1.09,1.09,0,0,1-.08.15,1,1,0,0,1-.24.24l-.15.08-.16,0h-.34l-.16,0-.15-.08A.45.45,0,0,1,80.2,20l-.11-.13A.53.53,0,0,1,80,19.7a.49.49,0,0,1-.05-.16,1,1,0,0,1,0-.17.88.88,0,0,1,0-.17A.75.75,0,0,1,80,19a.55.55,0,0,1,.08-.15.45.45,0,0,1,.11-.13m.21-6.34a.89.89,0,0,1,1.22.05.87.87,0,0,1,.23.63.88.88,0,0,1-.29.6A.87.87,0,0,1,80.12,13a.88.88,0,0,1,.29-.59M81,6.69A.87.87,0,0,1,82,8.1a.88.88,0,0,1-.51.16.83.83,0,0,1-.71-.37A.86.86,0,0,1,81,6.69m2.71,9.52A.87.87,0,0,1,83,17.69a.83.83,0,0,1-.61-.26.86.86,0,0,1-.25-.61.83.83,0,0,1,.26-.61.88.88,0,0,1,1.22,0m-.48-6a.89.89,0,0,1,1.21.21.86.86,0,0,1,.14.64.89.89,0,0,1-.35.57A.89.89,0,0,1,83,11.4a.88.88,0,0,1-.14-.65.84.84,0,0,1,.35-.56m.08-9.13L83.4,1l.15-.08.16-.05a.91.91,0,0,1,.33,0,.85.85,0,0,1,.17.06.55.55,0,0,1,.15.08.91.91,0,0,1,.13.1,1.13,1.13,0,0,1,.1.13.55.55,0,0,1,.08.15.58.58,0,0,1,0,.16,1,1,0,0,1,0,.17.5.5,0,0,1,0,.17.58.58,0,0,1,0,.16.52.52,0,0,1-.07.15,1.71,1.71,0,0,1-.11.14l-.13.1-.15.08-.17,0-.16,0-.18,0-.16,0-.15-.08-.13-.1-.1-.14A.53.53,0,0,1,83.08,2a.75.75,0,0,1,0-.16.88.88,0,0,1,0-.17.88.88,0,0,1,.25-.61m2,4.05a.9.9,0,0,1,.07.66.91.91,0,0,1-.42.52.83.83,0,0,1-.41.1.86.86,0,0,1-.76-.45.86.86,0,0,1,.35-1.17.89.89,0,0,1,1.17.34m1.07,9a.87.87,0,0,1-.69,1.38.87.87,0,0,1-.52-1.56.89.89,0,0,1,1.21.18M86.2,8.32a.89.89,0,0,1,1.18.36.86.86,0,0,1,.06.65.84.84,0,0,1-.42.52.8.8,0,0,1-.41.1.85.85,0,0,1-.76-.46.87.87,0,0,1,.35-1.17m.7-4.65a.86.86,0,0,1,1.6,0A.85.85,0,0,1,88,4.8a.71.71,0,0,1-.32.07.87.87,0,0,1-.8-1.2M89,7.3a.9.9,0,0,1,.48-.46.89.89,0,0,1,1.13.49.91.91,0,0,1,0,.67.88.88,0,0,1-.48.45A.86.86,0,0,1,88.94,8a.89.89,0,0,1,0-.66m1.36-4.88A.85.85,0,0,1,90.83,2a.88.88,0,0,1,1.07.6.87.87,0,0,1-.08.65.84.84,0,0,1-.51.41.77.77,0,0,1-.25,0,.88.88,0,0,1-.83-.63.89.89,0,0,1,.08-.66m2.51,3.34a.88.88,0,0,1,1.05.63.89.89,0,0,1-.09.66.83.83,0,0,1-.54.39.76.76,0,0,1-.21,0,.87.87,0,0,1-.21-1.71m1-4.2a.84.84,0,0,1,.56-.35.86.86,0,0,1,1,.71.93.93,0,0,1-.15.65.93.93,0,0,1-.57.35h-.14a.87.87,0,0,1-.85-.73.82.82,0,0,1,.15-.64m1.83,8.7a.88.88,0,0,1-.67,1l-.18,0a.88.88,0,0,1-.85-.68.87.87,0,0,1,.67-1,.89.89,0,0,1,1,.66m.07-4.81a.81.81,0,0,1,.58-.33h.1a.87.87,0,0,1,.69,1.4.91.91,0,0,1-.58.33h-.11a.86.86,0,0,1-.85-.76.83.83,0,0,1,.17-.63m1.7-4.36A.83.83,0,0,1,98,.81h0a.87.87,0,0,1,.87.82.88.88,0,0,1-.82.91h0a.86.86,0,0,1-.86-.82.87.87,0,0,1,.22-.63M99.87,4.9a.87.87,0,1,1-.87.87.87.87,0,0,1,.87-.87M101.65.8h.22v0a.83.83,0,0,1,.41.25.92.92,0,0,1,.22.63.87.87,0,0,1-.87.82h-.06A.87.87,0,0,1,101.65.8m1.76,4.32h0a.85.85,0,0,1,.53.32.86.86,0,0,1-.68,1.4h-.11a.86.86,0,0,1,.21-1.71M105.1,9.6a.86.86,0,0,1-.18,1.71l-.18,0a.86.86,0,0,1-.55-.38.92.92,0,0,1-.12-.65.87.87,0,0,1,1-.66m.23-8.4a.85.85,0,0,1,.56.36.81.81,0,0,1,.15.64.86.86,0,0,1-.85.72H105a.85.85,0,0,1-.56-.35.87.87,0,0,1-.15-.64.88.88,0,0,1,1-.72m1.58,4.56a.88.88,0,0,1,.63,1,.87.87,0,0,1-.84.66.71.71,0,0,1-.21,0,.87.87,0,0,1-.53-.39.85.85,0,0,1-.1-.66.88.88,0,0,1,1-.63m.92-3.16A.89.89,0,0,1,108.9,2a.87.87,0,0,1-.47,1.67.85.85,0,0,1-.52-.41.89.89,0,0,1-.08-.66m2.47,4.23a.9.9,0,0,1,.48.46.89.89,0,0,1,0,.66.86.86,0,0,1-.81.56.81.81,0,0,1-.31-.06A.87.87,0,0,1,109.2,8a.84.84,0,0,1,0-.66.9.9,0,0,1,1.12-.5m.93-3.16a.89.89,0,0,1,1.13-.48.87.87,0,0,1,.48,1.13.89.89,0,0,1-.8.54,1,1,0,0,1-.33-.06.87.87,0,0,1-.48-1.13m2.3,4.65a.82.82,0,0,1,.42.51.86.86,0,0,1-.83,1.12.8.8,0,0,1-.4-.11.86.86,0,1,1,.81-1.52m1.11,5.59a.83.83,0,0,1,.34.57.89.89,0,0,1-.16.65.87.87,0,0,1-1.21.17.83.83,0,0,1-.34-.57.82.82,0,0,1,.16-.64.89.89,0,0,1,1.21-.18M114.5,5.1a.85.85,0,0,1,1.17-.34.86.86,0,0,1-.42,1.62.86.86,0,0,1-.41-.1.87.87,0,0,1-.34-1.18M115.39,2a.53.53,0,0,1,0-.16l.08-.15a.69.69,0,0,1,.11-.13l.13-.11.15-.08.16-.05a1,1,0,0,1,.34,0l.16.05a.53.53,0,0,1,.15.08l.14.11a.64.64,0,0,1,.1.13,1.09,1.09,0,0,1,.08.15.58.58,0,0,1,0,.16,1,1,0,0,1,0,.17.86.86,0,0,1-.25.61l-.14.11-.14.08-.17,0h-.34l-.16,0-.15-.08-.13-.11a.86.86,0,0,1-.25-.61,1,1,0,0,1,0-.17m2.17,14.85a.81.81,0,0,1-.24.61.87.87,0,1,1-1.24-1.21.89.89,0,0,1,1.23,0,.86.86,0,0,1,.25.61m0-9.91a.87.87,0,1,1,1.42,1,.87.87,0,0,1-.71.37.84.84,0,0,1-.49-.16.86.86,0,0,1-.36-.55.88.88,0,0,1,.14-.65m2,6.1a.84.84,0,0,1-.22.63.86.86,0,1,1-1.28-1.16.89.89,0,0,1,1.21-.08.88.88,0,0,1,.29.61m0-10.33a.49.49,0,0,1,0-.16.51.51,0,0,1,.07-.15l.11-.13.13-.11a.8.8,0,0,1,.16-.08L120.3,2a.9.9,0,0,1,.78.24l.11.13a1,1,0,0,1,.07.15.49.49,0,0,1,0,.16.5.5,0,0,1,0,.17.87.87,0,0,1-.87.87.89.89,0,0,1-.61-.26.86.86,0,0,1-.25-.61,1,1,0,0,1,0-.17M122,9.53a.83.83,0,0,1-.21.62.85.85,0,0,1-.65.3.91.91,0,0,1-.57-.21A.87.87,0,0,1,120.45,9a.9.9,0,0,1,1.22-.08.84.84,0,0,1,.29.6m-.23,6.64a.86.86,0,0,1-.57.21.89.89,0,0,1-.66-.3.88.88,0,0,1,.09-1.22.89.89,0,0,1,1.22.09.86.86,0,0,1,.21.63.84.84,0,0,1-.29.59m.68,1.93a.49.49,0,0,1,0-.16,1.09,1.09,0,0,1,.08-.15l.1-.13.14-.11.14-.08.17,0a.91.91,0,0,1,.33,0l.17,0,.15.08.13.11.11.13a1.09,1.09,0,0,1,.08.15s0,.11,0,.16a1.45,1.45,0,0,1,0,.34c0,.06,0,.11,0,.16a.71.71,0,0,1-.08.15l-.11.13-.13.11-.15.08a.64.64,0,0,1-.17.05l-.16,0-.17,0-.17-.05-.14-.08-.14-.11a.62.62,0,0,1-.09-.12.51.51,0,0,1-.09-.16.43.43,0,0,1,0-.16,1,1,0,0,1,0-.17,1.11,1.11,0,0,1,0-.17m.65-6.66a.89.89,0,0,1,1.23.05.87.87,0,0,1-.06,1.22.83.83,0,0,1-.58.23.86.86,0,0,1-.59-1.5M123.2,4a.93.93,0,0,1,1.22,0l.1.12a.89.89,0,0,1,.09.16,1,1,0,0,1,0,.16,1,1,0,0,1,0,.18.76.76,0,0,1,0,.16,1.09,1.09,0,0,1,0,.17,1.09,1.09,0,0,1-.08.15l-.11.13a.86.86,0,0,1-.61.25l-.17,0-.16,0-.15-.08a.57.57,0,0,1-.13-.1.76.76,0,0,1-.11-.14L123,5a1.09,1.09,0,0,1-.05-.17.7.7,0,0,1,0-.16A.9.9,0,0,1,123.2,4m2.2,10.13a.86.86,0,0,1,1.36.83.79.79,0,0,1-.34.56.87.87,0,0,1-1.21-.18.92.92,0,0,1-.16-.64.86.86,0,0,1,.35-.57m.46-11.83a.84.84,0,0,1,.44-.5.88.88,0,0,1,1.16.39.84.84,0,0,1,0,.66.85.85,0,0,1-.43.5.92.92,0,0,1-.39.09.84.84,0,0,1-.77-.48.84.84,0,0,1,0-.66m1.76,5a.73.73,0,0,1,0,.34.58.58,0,0,1-.05.16.55.55,0,0,1-.08.15.57.57,0,0,1-.1.13l-.13.11-.15.08-.17,0h-.33l-.17,0-.15-.08-.13-.11a.57.57,0,0,1-.1-.13.53.53,0,0,1-.08-.15.58.58,0,0,1,0-.16.73.73,0,0,1,0-.34.58.58,0,0,1,0-.16.71.71,0,0,1,.08-.15.64.64,0,0,1,.1-.13l.13-.11.15-.08.16,0a.89.89,0,0,1,.79.24.64.64,0,0,1,.1.13.53.53,0,0,1,.08.15.58.58,0,0,1,.05.16m.88,3.26a.85.85,0,0,1,.13-.32l.11-.13.13-.11L129,10l.16,0a.87.87,0,0,1,.78.23.53.53,0,0,1,.11.14.64.64,0,0,1,.08.14,1.09,1.09,0,0,1,0,.17.69.69,0,0,1,0,.33.75.75,0,0,1,0,.16.55.55,0,0,1-.08.15.85.85,0,0,1-.11.14.81.81,0,0,1-.13.11l-.15.08-.16,0a.5.5,0,0,1-.17,0,.52.52,0,0,1-.17,0,.49.49,0,0,1-.16,0l-.15-.07a.77.77,0,0,1-.13-.12.85.85,0,0,1-.25-.61.76.76,0,0,1,0-.16m.73-5.3a.85.85,0,0,1,.5-.39l.24,0a.87.87,0,0,1,.84.65.83.83,0,0,1-.09.65.89.89,0,0,1-.53.4.83.83,0,0,1-.22,0,.86.86,0,0,1-.83-.65.85.85,0,0,1,.09-.66M129.34,1a.87.87,0,0,1,.57-.34H130a.85.85,0,0,1,.85.74.82.82,0,0,1-.15.64.87.87,0,0,1-.57.34H130a.88.88,0,0,1-.86-.73.89.89,0,0,1,.16-.65m2.46,11.3a.87.87,0,1,1-.86.86.87.87,0,0,1,.86-.86m0-4.19a.86.86,0,1,1-.86.86.86.86,0,0,1,.86-.86M133.69.65a.86.86,0,0,1,.73,1,.88.88,0,0,1-.85.73h-.14a.86.86,0,0,1-.72-1,.87.87,0,0,1,1-.73M134.47,6a.88.88,0,0,1-.84.65.71.71,0,0,1-.21,0,.86.86,0,0,1,.21-1.7l.21,0a.83.83,0,0,1,.53.4.85.85,0,0,1,.1.66m.27,4.09.13.1.11.13a1.09,1.09,0,0,1,.08.15,1,1,0,0,1,0,.17.44.44,0,0,1,0,.16.47.47,0,0,1,0,.17.48.48,0,0,1,0,.17,1,1,0,0,1-.07.15l-.11.13-.13.11-.15.08-.16,0a.52.52,0,0,1-.17,0l-.17,0-.16,0a.54.54,0,0,1-.15-.09.41.41,0,0,1-.13-.1.63.63,0,0,1-.11-.13.55.55,0,0,1-.08-.15.49.49,0,0,1-.05-.16,1.1,1.1,0,0,1,0-.18.85.85,0,0,1,.26-.61.53.53,0,0,1,.12-.1.85.85,0,0,1,.32-.13.77.77,0,0,1,.34,0l.16.05.15.09M136,7.34a.75.75,0,0,1,0-.16.71.71,0,0,1,.08-.15.75.75,0,0,1,.11-.13l.11-.1.17-.09a.71.71,0,0,1,.16,0,.85.85,0,0,1,.78.24.87.87,0,0,1,.26.61,1,1,0,0,1,0,.17.49.49,0,0,1-.05.16.68.68,0,0,1-.08.15.45.45,0,0,1-.11.13.47.47,0,0,1-.13.11l-.14.08-.17,0h-.34l-.16,0-.15-.08-.13-.11L136.11,8a1,1,0,0,1-.08-.15.94.94,0,0,1,0-.16.73.73,0,0,1,0-.34m.16-5.16a.88.88,0,0,1,1.16-.38.85.85,0,0,1,.43.5.86.86,0,0,1-.82,1.14.92.92,0,0,1-.38-.09.86.86,0,0,1-.39-1.17m2.13,1.92a.58.58,0,0,1,.05-.16.53.53,0,0,1,.08-.15.41.41,0,0,1,.1-.13.93.93,0,0,1,1.23,0l.11.13s.05.1.08.15,0,.11,0,.16a.94.94,0,0,1-.24.78l-.13.11-.15.08-.16,0h-.17a.9.9,0,0,1-.62-.25.84.84,0,0,1-.23-.78M119.79,19.54a1,1,0,0,1-.05.16,1.09,1.09,0,0,1-.08.15.5.5,0,0,1-.11.13.69.69,0,0,1-.13.11l-.15.08-.16,0h-.34l-.16,0-.15-.08-.13-.11-.11-.13a1.09,1.09,0,0,1-.08-.15c0-.05,0-.11,0-.16a.91.91,0,0,1,0-.17.86.86,0,0,1,0-.17c0-.06,0-.11,0-.16a.53.53,0,0,1,.08-.15.69.69,0,0,1,.11-.13.58.58,0,0,1,.13-.11.55.55,0,0,1,.15-.08l.16-.05a.88.88,0,0,1,.79.24.64.64,0,0,1,.1.13.53.53,0,0,1,.08.15.75.75,0,0,1,.05.16.79.79,0,0,1,0,.17.88.88,0,0,1,0,.17M115.21,11a.88.88,0,0,1,.14-.65.91.91,0,0,1,1.21-.21.86.86,0,0,1,.35.56.84.84,0,0,1-.15.65.85.85,0,0,1-.7.37.9.9,0,0,1-.5-.16.85.85,0,0,1-.35-.56m.55,10.11a.71.71,0,0,1-.05.16,1.09,1.09,0,0,1-.08.15.69.69,0,0,1-.11.13.45.45,0,0,1-.13.11l-.15.08-.16,0h-.34l-.16,0-.15-.08-.13-.11-.11-.13a1,1,0,0,1-.08-.15,1,1,0,0,1,0-.16,1,1,0,0,1,0-.17.86.86,0,0,1,.25-.61l.13-.11.15-.08.16-.05a1,1,0,0,1,.34,0l.16.05.15.08a1,1,0,0,1,.24.24.71.71,0,0,1,.08.15,1.42,1.42,0,0,1,.05.16.88.88,0,0,1,0,.17,1.11,1.11,0,0,1,0,.17m-2.62-2a.87.87,0,0,1-.66.31.89.89,0,0,1-.56-.2A.87.87,0,1,1,113,17.92a.82.82,0,0,1,.31.58.88.88,0,0,1-.2.64m-1.26,3.31a.89.89,0,0,1-.62.25.85.85,0,0,1-.86-.87.44.44,0,0,1,0-.17.94.94,0,0,1,0-.16l.08-.15.11-.13a.93.93,0,0,1,1.23,0l.1.12c0,.06.06.11.08.16a.49.49,0,0,1,0,.16.52.52,0,0,1,0,.17.9.9,0,0,1-.25.62m-1.37-10.08a.87.87,0,0,1,1.17-.34A.86.86,0,0,1,112,13.2a.86.86,0,0,1-.76.45.87.87,0,0,1-.42-.1.86.86,0,0,1-.34-1.18m-.84,5.14a.92.92,0,0,1-.43-.11.89.89,0,0,1-.4-.53.81.81,0,0,1,.08-.66.89.89,0,0,1,1.18-.32.87.87,0,0,1-.43,1.62m-.51,3.71a.9.9,0,0,1-.73.39.86.86,0,0,1-.72-1.34.88.88,0,0,1,1.2-.25.86.86,0,0,1,.37.55.88.88,0,0,1-.12.65m-1.79-10.13a.87.87,0,0,1,1.11-.51.86.86,0,0,1-.3,1.67.79.79,0,0,1-.3-.05.86.86,0,0,1-.51-1.11m0,4.42a.88.88,0,0,1-.82.57.93.93,0,0,1-.29,0,.87.87,0,0,1-.49-.45.84.84,0,0,1,0-.66.88.88,0,0,1,1.1-.52.87.87,0,0,1,.53,1.11M106,19.42a.86.86,0,0,1-.81.57,1,1,0,0,1-.3,0,.87.87,0,0,1-.49-.45.89.89,0,0,1,0-.66.86.86,0,0,1,1.59-.07.84.84,0,0,1,0,.66m-.05,4a.85.85,0,0,1-.78.48.85.85,0,0,1-.81-.59.84.84,0,0,1,0-.66.87.87,0,0,1,1.6.11.89.89,0,0,1-.05.66m-2.69-8.24h-.13a.87.87,0,1,1,.28-1.71.85.85,0,0,1,.7,1,.85.85,0,0,1-.85.72m-1.59,3.95h-.1a.87.87,0,0,1,.2-1.72.81.81,0,0,1,.57.32.86.86,0,0,1-.67,1.4m0,4.18h-.14a.87.87,0,1,1,1-.73.88.88,0,0,1-.85.74M100.7,9.91a.86.86,0,0,1,.93-.8.8.8,0,0,1,.58.29.86.86,0,0,1-.65,1.43h0a.87.87,0,0,1-.84-.92m-.83,5a.87.87,0,1,1,.87-.87.86.86,0,0,1-.87.87M98.81,23a.89.89,0,0,1-.57.35h-.13a.88.88,0,0,1-.7-1.38.83.83,0,0,1,.57-.34h.13a.87.87,0,0,1,.86.73.85.85,0,0,1-.16.64m-1.43-5.22a.89.89,0,0,1,.58-.32.86.86,0,0,1,1,.76.87.87,0,0,1-.76,1h-.1a.86.86,0,0,1-.68-1.4M97.31,10a.86.86,0,0,1,.8-.92h.07a.87.87,0,0,1,.86.81.91.91,0,0,1-.21.63.88.88,0,0,1-.6.29h-.06a.86.86,0,0,1-.86-.8m-.69,5.17h-.15a.86.86,0,0,1-.85-.72.81.81,0,0,1,.15-.64.85.85,0,0,1,.56-.36.84.84,0,0,1,1,.71.86.86,0,0,1-.7,1m-1,8.62a.93.93,0,0,1-.44.5A.87.87,0,0,1,94,23.93a.89.89,0,0,1,0-.66.87.87,0,0,1,.44-.5.88.88,0,0,1,1.16.38.92.92,0,0,1,0,.67m-1.85-4.4a.84.84,0,0,1,0-.66.82.82,0,0,1,.49-.44.88.88,0,0,1,1.11.51.91.91,0,0,1,0,.67.88.88,0,0,1-.49.44.73.73,0,0,1-.3,0,.86.86,0,0,1-.81-.57m-.55-3.34a.87.87,0,0,1-.82-.57.84.84,0,0,1,0-.66.87.87,0,0,1,.49-.45.89.89,0,0,1,1.11.52A.87.87,0,0,1,93.47,16a.77.77,0,0,1-.29,0m-1,4.84a.84.84,0,0,1-.38.55.79.79,0,0,1-.47.14.85.85,0,0,1-.72-.39.87.87,0,0,1-.13-.65.82.82,0,0,1,.38-.54.87.87,0,0,1,1.19.24.89.89,0,0,1,.13.65M90.78,11a.85.85,0,0,1,.48-.45.81.81,0,0,1,.31-.06.87.87,0,0,1,.81.57.89.89,0,0,1,0,.66.87.87,0,0,1-.49.45.8.8,0,0,1-.3.06.87.87,0,0,1-.81-.57.84.84,0,0,1,0-.66m-1.46,6a.87.87,0,0,1,.33-1.18.87.87,0,0,1,.86,1.51.92.92,0,0,1-.43.11.89.89,0,0,1-.76-.44m-.17,6.61a.88.88,0,0,1-.61.25.9.9,0,0,1-.62-.25.86.86,0,0,1-.25-.61.88.88,0,0,1,0-.17.43.43,0,0,1,0-.16.36.36,0,0,1,.08-.15,1.34,1.34,0,0,1,.11-.14l.13-.1a.53.53,0,0,1,.15-.08l.16-.05a.88.88,0,0,1,.78.24.69.69,0,0,1,.11.13.53.53,0,0,1,.08.15c0,.05,0,.1,0,.16a.91.91,0,0,1,0,.17.88.88,0,0,1-.25.61M88.07,12a.86.86,0,1,1,.82,1.52.87.87,0,0,1-.41.11.89.89,0,0,1-.77-.46A.87.87,0,0,1,88.07,12m-1.46,7.11a.86.86,0,0,1-.2-.63.84.84,0,0,1,.31-.59.9.9,0,0,1,1.22.11.87.87,0,0,1,.19.64.86.86,0,0,1-1.52.47m-1.16,2.45-.13.11-.15.08-.16,0h-.34l-.16,0a.71.71,0,0,1-.15-.08.47.47,0,0,1-.13-.11A.83.83,0,0,1,84,21a.88.88,0,0,1,0-.17.58.58,0,0,1,.05-.16,1.09,1.09,0,0,1,.08-.15.47.47,0,0,1,.11-.13.69.69,0,0,1,.13-.11.53.53,0,0,1,.15-.08l.16-.05a1,1,0,0,1,.34,0,.71.71,0,0,1,.16.05l.15.08.13.11a.75.75,0,0,1,.11.13s0,.1.08.15a.53.53,0,0,1,0,.16.47.47,0,0,1,0,.17.86.86,0,0,1-.25.61M81.61,23.5a.87.87,0,0,1-.8.54,1,1,0,0,1-.33-.06.87.87,0,1,1,1.13-.48m-8.43.3H73a.87.87,0,0,1-.71-1,.85.85,0,0,1,1-.71.84.84,0,0,1,.56.35.82.82,0,0,1,.15.64.86.86,0,0,1-.85.73m-3.54-.39h-.06a.87.87,0,0,1,.06-1.73h.2v0a.86.86,0,0,1,.65.88.86.86,0,0,1-.86.82m-3.52,0h-.05a.86.86,0,0,1-.86-.81.87.87,0,0,1,.82-.92h0a.87.87,0,0,1,.05,1.73m-2.88,0a.89.89,0,0,1-.56.35h-.15a.86.86,0,0,1-.85-.72.87.87,0,1,1,1.56.36m-7.38-3.9c0,.05,0,.11,0,.16a1.09,1.09,0,0,1-.08.15l-.11.13a.69.69,0,0,1-.13.11l-.15.08-.16,0h-.34l-.16,0-.15-.08A.45.45,0,0,1,54.4,20l-.11-.13a1.09,1.09,0,0,1-.08-.15,1,1,0,0,1-.05-.16.88.88,0,0,1,0-.17.79.79,0,0,1,0-.17.75.75,0,0,1,.05-.16.53.53,0,0,1,.08-.15.69.69,0,0,1,.11-.13.45.45,0,0,1,.13-.11.55.55,0,0,1,.15-.08l.16-.05a.87.87,0,0,1,.78.24.69.69,0,0,1,.11.13.53.53,0,0,1,.08.15c0,.05,0,.1,0,.16a.86.86,0,0,1,0,.17.91.91,0,0,1,0,.17m-2.48-2.12a.85.85,0,0,1-.62.26.87.87,0,0,1-.86-.86.82.82,0,0,1,.25-.61.88.88,0,0,1,1.22,0,.83.83,0,0,1,.26.61.86.86,0,0,1-.25.61m-2-7a.89.89,0,0,1,1.2-.21.88.88,0,0,1,.36.56.93.93,0,0,1-.15.65.87.87,0,0,1-.71.37.9.9,0,0,1-.5-.16.87.87,0,0,1-.2-1.21m1.73,9.77a1.42,1.42,0,0,1,0,.16.53.53,0,0,1-.08.15.76.76,0,0,1-.11.14l-.13.1-.15.08a.58.58,0,0,1-.16.05l-.17,0-.17,0a.58.58,0,0,1-.16-.05l-.15-.08-.13-.1a.76.76,0,0,1-.11-.14.64.64,0,0,1-.08-.14,1.09,1.09,0,0,1,0-.17.82.82,0,0,1,.24-.78.69.69,0,0,1,.13-.11l.15-.08.16-.05a1,1,0,0,1,.34,0,1,1,0,0,1,.16.06.63.63,0,0,1,.28.18l.11.13a1.09,1.09,0,0,1,.08.15,1.42,1.42,0,0,1,0,.16,1,1,0,0,1,0,.17,1,1,0,0,1,0,.17m-3.94-1a.87.87,0,0,1-1.22.11A.86.86,0,0,1,47.88,18a.88.88,0,0,1,1.21-.11.82.82,0,0,1,.31.58.87.87,0,0,1-.19.64m-2.29-5.59A.87.87,0,0,1,46.5,13a.9.9,0,0,1,.07-.66A.88.88,0,0,1,47.74,12a.86.86,0,0,1-.82,1.52m-.43,3.52a.87.87,0,0,1-.76.44.91.91,0,0,1-.42-.11.87.87,0,0,1-.41-.53.85.85,0,0,1,.09-.66.88.88,0,0,1,1.17-.32.87.87,0,0,1,.33,1.18M43.94,12.2A.86.86,0,1,1,45,11a.94.94,0,0,1,0,.66.88.88,0,0,1-.82.56.79.79,0,0,1-.3-.05m-.49,3.31a.86.86,0,0,1-.81.57.84.84,0,0,1-.29,0,.87.87,0,1,1,.58-1.63.87.87,0,0,1,.52,1.11M40,14h-.12a.87.87,0,1,1,.27-1.71.93.93,0,0,1,.56.35.88.88,0,0,1,.14.65A.86.86,0,0,1,40,14m-2.88-3h0a.86.86,0,1,1,.09-1.72.82.82,0,0,1,.59.29.85.85,0,0,1,.21.63.86.86,0,0,1-.86.8m35.8,14.43H98.81c21.84,0,40.68-10.62,45.08-25.43H27.78l.6,1.59c5.27,14,23.58,23.84,44.54,23.84"></path></g></g></svg>